# xmcd
#
# Track frame offsets:
#	150
#	24654
#	49572
#	51891
#	70949
#	89407
#	122623
#	147846
#	160185
#	179617
#	198446
#
# Disc length: 2756 seconds
#
# Revision: 0
# Processed by: cddbd v1.5.2PL0 Copyright (c) Steve Scherf et al.
# Submitted via: EZCDAudioConverter 2.1.7.1
#
DISCID=980ac20b
DTITLE=Shaolin Afronauts - Follow The Path 1/2
DYEAR=1900
DGENRE=
TTITLE0=Ojo Abameta
TTITLE1=To The Water
TTITLE2=Baie De Sangareya Intro
TTITLE3=Baie De Sangareya
TTITLE4=Sissoko
TTITLE5=Lagos Chase
TTITLE6=At The Shrine
TTITLE7=Interlude 1
TTITLE8=Follow The Path
TTITLE9=Boogie Back Accra
TTITLE10=To The Water Interlude
EXTD=
EXTT0=
EXTT1=
EXTT2=
EXTT3=
EXTT4=
EXTT5=
EXTT6=
EXTT7=
EXTT8=
EXTT9=
EXTT10=
PLAYORDER=
